HIERARCHY
ROOT Hips
{
	OFFSET -3.958830 18.904000 13.208200
	CHANNELS 6 Xposition Yposition Zposition Zrotation Yrotation Xrotation 
	JOINT LHipJoint
	{
		OFFSET 0.000000 0.000000 0.000000
		CHANNELS 3 Zrotation Yrotation Xrotation
		JOINT LeftUpLeg
		{
			OFFSET 1.800000 -1.400000 0.085000
			CHANNELS 3 Zrotation Yrotation Xrotation
			JOINT LeftLeg
			{
				OFFSET 2.215000 -6.000000 0.000000
				CHANNELS 3 Zrotation Yrotation Xrotation
				JOINT LeftFoot
				{
					OFFSET 2.500000 -6.900000 0.000000
					CHANNELS 3 Zrotation Yrotation Xrotation
					JOINT LeftToeBase
					{
						OFFSET 0.200000 -0.500000 1.950000
						CHANNELS 3 Zrotation Yrotation Xrotation
						End Site
						{
							OFFSET 0.000000 0.000000 0.000000
						}
					}
				}
			}
		}
	}
	JOINT RHipJoint
	{
		OFFSET 0.000000 0.000000 0.000000
		CHANNELS 3 Zrotation Yrotation Xrotation
		JOINT RightUpLeg
		{
			OFFSET -1.800000 -1.400000 0.085000
			CHANNELS 3 Zrotation Yrotation Xrotation
			JOINT RightLeg
			{
				OFFSET -2.215000 -6.000000 0.000000
				CHANNELS 3 Zrotation Yrotation Xrotation
				JOINT RightFoot
				{
					OFFSET -2.500000 -6.900000 0.000000
					CHANNELS 3 Zrotation Yrotation Xrotation
					JOINT RightToeBase
					{
						OFFSET -0.200000 -0.500000 1.950000
						CHANNELS 3 Zrotation Yrotation Xrotation
						End Site
						{
							OFFSET 0.000000 0.000000 0.000000
						}
					}
				}
			}
		}
	}
	JOINT LowerBack
	{
		OFFSET 0.000000 0.000000 0.000000
		CHANNELS 3 Zrotation Yrotation Xrotation
		JOINT Spine
		{
			OFFSET -0.087000 1.940000 -0.288900
			CHANNELS 3 Zrotation Yrotation Xrotation
			JOINT Spine1
			{
				OFFSET 0.000000 1.950000 0.060000
				CHANNELS 3 Zrotation Yrotation Xrotation
				JOINT Neck
				{
					OFFSET 0.000000 0.000000 0.000000
					CHANNELS 3 Zrotation Yrotation Xrotation
					JOINT Neck1
					{
						OFFSET 0.000000 1.600000 0.340000
						CHANNELS 3 Zrotation Yrotation Xrotation
						JOINT Head
						{
							OFFSET 0.000000 1.667000 -0.240000
							CHANNELS 3 Zrotation Yrotation Xrotation
							End Site
							{
								OFFSET 0.000000 0.000000 0.000000
							}
						}
					}
				}
				JOINT LeftShoulder
				{
					OFFSET 0.000000 0.000000 0.000000
					CHANNELS 3 Zrotation Yrotation Xrotation
					JOINT LeftArm
					{
						OFFSET 2.700000 1.550000 -0.730000
						CHANNELS 3 Zrotation Yrotation Xrotation
						JOINT LeftForeArm
						{
							OFFSET 5.450000 0.000000 0.000000
							CHANNELS 3 Zrotation Yrotation Xrotation
							JOINT LeftHand
							{
								OFFSET 3.450000 0.000000 0.000000
								CHANNELS 3 Zrotation Yrotation Xrotation
								JOINT LeftHandIndex1
								{
									OFFSET 0.750000 0.000000 0.000000
									CHANNELS 3 Zrotation Yrotation Xrotation
									End Site
									{
										OFFSET 0.000000 0.000000 0.000000
									}
								}
							}
						}
					}
				}
				JOINT RightShoulder
				{
					OFFSET 0.000000 0.000000 0.000000
					CHANNELS 3 Zrotation Yrotation Xrotation
					JOINT RightArm
					{
						OFFSET -2.700000 1.550000 -0.730000
						CHANNELS 3 Zrotation Yrotation Xrotation
						JOINT RightForeArm
						{
							OFFSET -5.450000 0.000000 0.000000
							CHANNELS 3 Zrotation Yrotation Xrotation
							JOINT RightHand
							{
								OFFSET -3.450000 0.000000 0.000000
								CHANNELS 3 Zrotation Yrotation Xrotation
								JOINT RightHandIndex1
								{
									OFFSET -0.750000 0.000000 0.000000
									CHANNELS 3 Zrotation Yrotation Xrotation
									End Site
									{
										OFFSET 0.000000 0.000000 0.000000
									}
								}
							}
						}
					}
				}
			}
		}
	}
}
MOTION
Frames: 13
Frame Time: 0.016667
-0.676000 16.823690 -7.191610 -5.634181 -56.489066 -3.065404 -15.226250 14.631964 2.984528 9.262444 0.292006 8.090604 -3.248945 6.919984 15.974821 0.082715 5.777986 2.757113 0.777360 0.505730 0.548040 18.078348 -10.600733 2.516077 -8.033349 -0.021737 -28.124588 1.163975 -4.532015 21.073503 -0.248124 -2.645451 3.314340 0.257330 0.042980 0.343460 -2.885817 -4.126638 -7.189874 6.518359 -9.072400 14.761913 -2.320149 -9.491867 14.501981 1.389982 -2.785374 -11.455639 -8.053038 2.607516 34.047159 0.754800 -0.446020 -18.377020 -8.765369 -16.279766 3.607365 -22.368656 -24.144884 0.362108 26.833236 -9.133945 -4.064520 -3.680800 3.186057 0.545370 -0.056110 0.214340 0.335820 6.345946 16.018065 9.443768 27.229770 8.517172 -6.404597 -159.971929 69.578957 -166.498668 1.865364 -2.144680 0.016480 0.112260 -0.285380 -0.113730 
-0.792180 16.788110 -7.157010 -5.163831 -55.866189 -2.046128 -15.192709 14.542218 2.984209 9.630757 0.283699 7.753340 -4.171607 7.102269 15.349528 0.166526 5.780785 2.796159 0.704430 0.422040 0.473380 18.106110 -10.646612 2.535950 -8.709982 0.014706 -28.227694 1.557334 -4.634904 20.843773 -0.203286 -2.705554 3.328577 0.194930 0.102810 0.340720 -3.125271 -3.900340 -7.132190 8.578088 -9.216403 13.220228 -3.368209 -9.606186 12.325521 1.598630 -3.781881 -11.376369 -9.508452 2.632879 32.079935 0.522140 -0.921040 -15.222710 -10.831120 -12.997388 3.145036 -21.930355 -19.458951 -0.166163 25.230140 -8.827287 -3.277601 -3.706071 3.194765 0.476530 -0.017420 0.157280 0.354070 7.865253 13.405175 9.892317 26.364953 3.034915 -5.268270 -163.761812 62.136745 -169.498524 1.920344 -2.215160 0.021770 0.086900 -0.274950 -0.074260 
-0.885330 16.758440 -7.118850 -5.454033 -54.478707 -0.183061 -15.141514 14.392751 2.926336 10.181547 0.175124 6.894862 -4.562297 7.024532 14.387754 0.177510 5.699514 2.868846 0.609290 0.326090 0.376720 18.156489 -10.714598 2.585406 -9.104325 0.191573 -28.245914 2.389123 -4.815925 20.309995 -0.150219 -2.775820 3.347927 0.145330 0.202520 0.331150 -3.468569 -3.497139 -7.017245 11.545733 -9.490408 11.403499 -4.997817 -9.776409 10.652826 1.886201 -4.058739 -11.130581 -9.314849 2.296993 29.405155 0.316130 -1.087660 -12.459840 -12.886307 -10.380075 2.946781 -20.411771 -13.337005 -1.383420 24.809368 -12.261990 -3.303239 -3.723157 3.176150 0.409300 0.050350 0.080880 0.367850 9.128000 10.798882 9.946263 24.628781 -1.815288 -4.263435 -163.635874 56.016093 -166.611689 1.964653 -2.265466 -0.005060 0.101150 -0.235570 -0.040390 
-0.961180 16.748310 -7.098700 -5.240743 -53.448905 0.651600 -15.117896 14.266137 2.919253 10.522604 0.218136 6.524845 -5.294069 7.052903 13.411755 0.148941 5.698280 2.876488 0.565470 0.263050 0.344080 18.185191 -10.746707 2.609054 -9.476436 0.439145 -28.044599 2.854459 -4.860557 19.894815 -0.130558 -2.809440 3.337636 0.120970 0.235880 0.341660 -3.613284 -3.206303 -6.980040 12.891320 -9.262451 10.822130 -5.609036 -9.490349 9.681448 2.076877 -3.958889 -10.739772 -8.555601 1.689098 27.328505 -0.077860 -1.072450 -12.370560 -14.987918 -8.466624 2.996757 -18.235150 -6.394793 -2.486272 24.354212 -15.842919 -3.419174 -3.710708 3.183329 0.406670 0.075620 0.046860 0.352860 10.763345 8.887663 9.550746 21.747453 -5.810347 -4.017794 -163.505142 51.873714 -164.061823 1.985238 -2.283131 -0.027220 0.098660 -0.194330 -0.048730 
-1.028350 16.757860 -7.091020 -4.581194 -51.987127 1.015035 -15.111847 14.195657 2.905182 10.702739 0.220934 5.712098 -6.004759 7.136200 13.191870 0.090500 5.698279 2.845616 0.571040 0.257010 0.351760 18.195363 -10.764347 2.605981 -9.754404 0.631517 -27.556171 2.885543 -4.712121 19.164425 -0.123593 -2.785980 3.322220 0.131660 0.225320 0.366910 -3.601983 -3.047637 -6.968667 12.841968 -8.603160 10.595947 -5.273148 -8.872328 9.298827 2.110237 -3.266808 -10.256072 -6.938004 0.869301 25.746096 -0.271990 -0.981220 -13.249780 -17.396701 -7.690823 3.040426 -15.429739 -1.396407 -2.796085 23.327297 -15.858843 -3.074906 -3.734461 3.231963 0.411670 0.084900 0.036290 0.325870 13.118503 7.663279 9.108123 18.140177 -10.292466 -4.112153 -164.121533 48.936039 -163.868520 1.993191 -2.314336 -0.026190 0.072310 -0.165680 -0.071210 
-1.066210 16.779570 -7.088590 -4.213259 -49.923303 0.937241 -15.090939 14.156236 2.948327 11.218491 0.191690 5.209067 -7.105248 7.303048 12.618430 0.082932 5.720897 2.820465 0.570770 0.247290 0.379440 18.206035 -10.779922 2.569431 -10.350613 0.555456 -26.304975 3.376503 -4.712482 17.989103 -0.154970 -2.726324 3.331756 0.112860 0.183180 0.370810 -3.592677 -2.999672 -7.022811 13.228800 -8.292632 11.493636 -5.032035 -8.408801 9.333111 2.108559 -3.016614 -10.282833 -6.433032 0.441554 25.491467 -0.176230 -0.622610 -15.850240 -18.751997 -7.483442 3.200685 -14.680276 1.441940 -2.957914 23.328446 -12.834670 -2.602355 -3.734987 3.211722 0.471060 0.041870 0.080010 0.301900 14.487182 7.296105 9.284543 18.132350 -14.330312 -4.930137 -168.777957 49.483332 -175.290175 2.002674 -2.285928 -0.027090 0.075310 -0.158100 -0.093200 
-1.084860 16.816750 -7.082030 -4.490276 -47.124587 0.585205 -15.034417 14.177089 3.011436 12.211604 0.082515 4.952946 -8.024454 7.560956 12.548546 0.093271 5.796588 2.801805 0.557250 0.212690 0.421410 18.225251 -10.843795 2.519192 -10.709130 0.302992 -23.754637 3.889135 -4.659742 16.078612 -0.198663 -2.625301 3.395108 0.074350 0.129240 0.329760 -3.611052 -2.994088 -7.119341 14.597808 -8.586317 14.033773 -5.232387 -8.238809 8.578489 2.331038 -3.268738 -10.370054 -6.798959 0.284631 25.443412 -0.067270 -0.092980 -19.947030 -19.418574 -6.479350 3.045820 -15.545337 4.629840 -3.626210 23.832256 -13.337277 -2.697333 -3.648702 3.127673 0.575450 -0.036890 0.135410 0.283290 14.698879 6.544919 9.558008 19.519952 -17.550755 -5.779936 -172.583821 49.069350 174.957527 2.035334 -2.205125 -0.062660 0.118340 -0.167470 -0.128660 
-1.101210 16.841880 -7.084630 -3.633994 -44.388992 0.366986 -15.015628 14.213718 3.043083 12.081335 0.029735 3.519722 -8.931023 7.763475 13.030025 0.096123 5.772057 2.814014 0.516680 0.148530 0.404880 18.219204 -10.825388 2.535870 -11.763507 0.193787 -22.762618 4.516036 -4.631291 14.647460 -0.201913 -2.588662 3.428206 0.024810 0.117520 0.294600 -3.522866 -3.115156 -7.209731 14.595424 -8.797988 16.405176 -4.620901 -8.050112 6.299849 2.318968 -4.299658 -10.601769 -8.170865 0.832998 23.795898 0.714450 0.506270 -21.930360 -17.960311 -3.405268 2.486577 -18.684290 8.598840 -4.479494 20.847426 -16.175565 -2.649893 -3.553532 3.086433 0.631430 -0.085260 0.138330 0.276160 13.349720 4.701651 9.823207 23.538414 -19.031950 -5.949730 -171.533469 45.552391 176.668330 2.072010 -2.186294 -0.096090 0.128730 -0.160390 -0.141120 
-1.105290 16.863500 -7.081160 -3.293953 -41.097304 1.614386 -15.015257 14.299825 3.087579 11.909419 -0.314378 0.745906 -9.759092 7.772384 13.328707 0.095873 5.639350 2.852624 0.498220 0.112860 0.378060 18.196077 -10.709181 2.582380 -12.328537 0.334928 -22.647634 4.809741 -4.456054 13.383136 -0.193722 -2.511923 3.472746 -0.017130 0.128300 0.299730 -3.394835 -3.463657 -7.314275 15.157658 -9.519818 17.991944 -3.354110 -8.156035 1.520718 2.381047 -5.863611 -10.358146 -10.603369 2.271815 22.397981 0.725860 1.617190 -21.698560 -16.428517 1.064112 1.319546 -22.906232 12.088242 -5.807178 17.724805 -18.556918 -2.501137 -3.516182 3.093116 0.638870 -0.098400 0.132720 0.292370 11.823071 1.884826 9.447526 26.494981 -19.499188 -5.589692 -166.492643 39.624768 -167.802098 2.107187 -2.222571 -0.089580 0.104550 -0.163800 -0.126620 
-1.117690 16.891850 -7.066210 -2.867635 -38.321884 4.006910 -15.016339 14.273264 3.144495 11.268377 -0.806114 -2.975569 -10.721834 7.631173 13.298087 0.081898 5.327301 2.942750 0.497440 0.158120 0.357180 18.178569 -10.594240 2.708853 -12.584894 0.825297 -24.173356 4.978648 -4.189738 12.680233 -0.175693 -2.364944 3.550432 -0.010520 0.122850 0.261880 -3.329033 -3.549576 -7.439240 15.466097 -9.600283 18.651263 -2.231553 -7.088655 -4.881644 2.352629 -6.525422 -9.181703 -11.372676 3.263155 21.214119 0.448440 3.208560 -22.182830 -14.101887 7.333557 -0.563082 -27.760500 15.314335 -8.117234 19.724875 -23.128059 -3.174932 -3.480532 3.066650 0.623700 -0.112950 0.150040 0.324480 9.473816 -3.012153 8.169024 31.013255 -19.133794 -5.452012 -161.971771 34.153359 -148.063999 2.109597 -2.259095 -0.086950 0.112160 -0.211510 -0.097140 
-1.122680 16.896630 -7.037180 -2.399478 -35.556509 7.583970 -15.047101 14.051339 3.208877 10.522257 -1.659037 -7.595335 -12.024842 7.511956 13.263875 -0.029602 5.126396 3.000508 0.457870 0.116300 0.357970 18.164635 -10.443090 2.893328 -13.059993 1.518383 -27.117155 5.141854 -3.959075 12.276418 -0.113646 -2.280373 3.593531 -0.002360 0.194080 0.259310 -3.270993 -3.333267 -7.584393 14.609234 -8.398338 17.063109 -1.054044 -4.944593 -10.167409 2.461885 -4.997121 -7.398447 -8.197910 3.132117 19.620132 -1.061840 5.103430 -19.717210 -11.621243 13.120914 -1.993986 -29.525134 19.466250 -10.649679 17.137441 -34.688059 -4.291152 -3.524105 3.107366 0.584850 -0.022600 0.097820 0.322630 6.569830 -9.037281 6.047546 34.846514 -20.060243 -6.276488 -156.972884 29.333887 -121.645088 1.987052 -2.348791 -0.138850 0.133180 -0.199860 -0.118750 
-1.106810 16.895260 -7.019910 -2.081621 -31.719138 10.398765 -15.068719 13.785167 3.273545 10.332303 -2.585776 -12.177479 -12.994517 7.596461 14.191325 -0.131337 5.069175 2.994394 0.402390 0.054400 0.328810 18.173868 -10.324239 3.004925 -13.789207 1.924466 -28.846959 5.397177 -3.852539 11.606575 -0.057060 -2.312364 3.591411 -0.002080 0.273100 0.275740 -3.286081 -3.071518 -7.660642 14.068658 -7.534895 15.440347 -0.357248 -3.762008 -13.377833 2.425631 -3.667152 -6.082843 -5.566297 2.773857 17.911089 -2.524120 6.423360 -16.349690 -9.814638 16.820495 -2.339152 -31.594530 23.294048 -12.951340 17.242178 -43.242498 -5.863691 -3.612209 3.200960 0.533740 0.083560 0.028590 0.314190 4.701899 -13.288933 3.955532 38.116805 -20.452811 -7.435095 -152.728321 27.684005 -101.364355 1.868788 -2.458194 -0.184020 0.128650 -0.164620 -0.137240 
-1.091520 16.895320 -6.995330 -1.621304 -26.836389 12.664651 -15.116189 13.495233 3.412633 10.545818 -3.517899 -16.837418 -14.102407 7.978251 15.708619 -0.133746 5.146559 2.933662 0.301270 -0.053260 0.257690 18.166433 -10.223019 3.027328 -14.724012 2.122898 -29.425970 5.638310 -3.801144 10.848754 0.006650 -2.388983 3.575749 -0.054580 0.336780 0.291900 -3.250526 -2.832764 -7.726824 12.875113 -6.244789 14.017334 1.406842 -2.585224 -15.480640 1.979521 -2.527996 -5.646442 -3.278586 1.422284 15.934241 -3.260470 6.468570 -12.699940 -6.726016 19.566135 -1.695077 -35.503766 26.815915 -16.007242 13.657377 -51.357709 -6.409389 -3.658750 3.368485 0.454860 0.169060 -0.047060 0.287240 2.512255 -16.349731 2.304182 42.428059 -21.365699 -9.246714 -148.543126 26.110394 -82.719622 1.810488 -2.560148 -0.196410 0.087010 -0.110960 -0.133870 
